<?xml version="1.0" encoding="UTF-8"?>
<svg version="1.1" xmlns="http://www.w3.org/2000/svg" width="210" height="210">
<path d="M0 0 C1.13378586 -0.00997513 2.26757172 -0.01995026 3.43571472 -0.03022766 C5.28027252 -0.03122467 5.28027252 -0.03122467 7.16209412 -0.03224182 C8.46857407 -0.04056534 9.77505402 -0.04888885 11.12112427 -0.0574646 C14.69591669 -0.07935027 18.27062359 -0.08820122 21.84547544 -0.09329104 C24.0845542 -0.09694363 26.32361089 -0.10318853 28.5626812 -0.11029243 C36.39075063 -0.13477264 44.218754 -0.14783437 52.04685974 -0.15138245 C59.31551525 -0.15500993 66.5837465 -0.18485206 73.85227257 -0.22678703 C80.11328127 -0.26162788 86.37415042 -0.27693331 92.63525528 -0.27762848 C96.36538819 -0.27841704 100.09508916 -0.28695839 103.82512093 -0.31562614 C107.9963365 -0.34696796 112.16656042 -0.33768175 116.33787537 -0.32521057 C117.55341095 -0.34004486 118.76894653 -0.35487915 120.02131653 -0.37016296 C133.91527289 -0.252562 144.52584441 4.7921939 154.35520935 14.37181091 C161.75708279 22.18719684 167.43282804 32.09634119 167.47029114 43.08474731 C167.48308609 44.78976158 167.48308609 44.78976158 167.49613953 46.52922058 C167.49477997 48.37849152 167.49477997 48.37849152 167.49339294 50.26512146 C167.50011017 51.574814 167.50682739 52.88450653 167.51374817 54.23388672 C167.53136938 57.81681918 167.53610202 61.39965602 167.53737974 64.98262763 C167.53880459 67.22571087 167.54308058 69.46877006 167.54837418 71.71184731 C167.56686461 79.5505845 167.5750464 87.38925381 167.57347107 95.22801208 C167.5722713 102.51255192 167.5933436 109.79679469 167.6249584 117.08125943 C167.65119668 123.35242744 167.66183515 129.62349891 167.66056025 135.89472133 C167.66005265 139.63254393 167.6656227 143.37010261 167.68691635 147.1078701 C167.71005942 151.28418809 167.70073193 155.4598503 167.68870544 159.63621521 C167.69994446 160.85894135 167.71118347 162.08166748 167.72276306 163.34144592 C167.62086195 177.31994167 162.57369613 187.47833931 153.03489685 197.56712341 C145.2696888 204.89253207 135.28151434 210.49672529 124.4057312 210.54830933 C122.70505241 210.56327202 122.70505241 210.56327202 120.97001648 210.57853699 C119.74031128 210.57920166 118.51060608 210.57986633 117.24363708 210.58055115 C115.93715714 210.58887466 114.63067719 210.59719818 113.28460693 210.60577393 C109.70981451 210.6276596 106.13510761 210.63651055 102.56025577 210.64160037 C100.321177 210.64525295 98.08212031 210.65149786 95.84305 210.65860176 C88.01498057 210.68308197 80.1869772 210.6961437 72.35887146 210.69969177 C65.09021595 210.70331926 57.8219847 210.73316139 50.55345863 210.77509636 C44.29244993 210.80993721 38.03158078 210.82524263 31.77047592 210.82593781 C28.04034301 210.82672637 24.31064204 210.83526771 20.58061028 210.86393547 C16.4093947 210.89527729 12.23917078 210.88599108 8.06785583 210.8735199 C6.24455246 210.89577133 6.24455246 210.89577133 4.38441467 210.91847229 C-9.50954169 210.80087133 -20.12011321 205.75611543 -29.94947815 196.17649841 C-37.35135159 188.36111249 -43.02709683 178.45196813 -43.06455994 167.46356201 C-43.0730899 166.32688583 -43.08161987 165.19020966 -43.09040833 164.01908875 C-43.08950195 162.78624146 -43.08859558 161.55339417 -43.08766174 160.28318787 C-43.09437897 158.97349533 -43.10109619 157.6638028 -43.10801697 156.31442261 C-43.12563817 152.73149014 -43.13037082 149.14865331 -43.13164854 145.5656817 C-43.13307338 143.32259846 -43.13734937 141.07953927 -43.14264297 138.83646202 C-43.16113341 130.99772483 -43.1693152 123.15905552 -43.16773987 115.32029724 C-43.1665401 108.0357574 -43.1876124 100.75151463 -43.21922719 93.4670499 C-43.24546548 87.19588189 -43.25610395 80.92481041 -43.25482905 74.653588 C-43.25432144 70.9157654 -43.2598915 67.17820671 -43.28118515 63.44043922 C-43.30432822 59.26412123 -43.29500073 55.08845903 -43.28297424 50.91209412 C-43.29421326 49.68936798 -43.30545227 48.46664185 -43.31703186 47.2068634 C-43.21513075 33.22836765 -38.16796493 23.06997001 -28.62916565 12.98118591 C-20.8639576 5.65577726 -10.87578314 0.05158403 0 0 Z " fill="#F5F5F5" transform="translate(42.79713439941406,-0.2741546630859375)"/>
<path d="M0 0 C4.12615558 2.24435241 7.2956872 5.64453396 9 10 C9.67775582 16.14686874 9.80401604 21.83740681 6 27 C3.9375 27.625 3.9375 27.625 2 28 C1.29605388 29.31403276 0.63654342 30.6520257 0 32 C-3.81851592 36.05100859 -7.97174774 39.68704116 -12.1875 43.3125 C-12.81591797 43.86228516 -13.44433594 44.41207031 -14.09179688 44.97851562 C-18.76271351 49 -18.76271351 49 -21 49 C-21.33 49.99 -21.66 50.98 -22 52 C-23.33333333 53 -24.66666667 54 -26 55 C-27.37760494 59.13281483 -27.84748729 62.69252326 -27 67 C-25.0753048 70.10121511 -22.63537614 72.49355616 -20 75 C-18.83205058 76.1653825 -17.66534467 77.33201283 -16.5 78.5 C-15.62794922 79.35851562 -15.62794922 79.35851562 -14.73828125 80.234375 C-12.36708543 82.64287053 -10.17344002 85.18564693 -7.96875 87.74609375 C-4.75976003 91.4198779 -1.44114658 94.99422217 1.86328125 98.58203125 C6.25370545 103.55035407 6.38149939 106.62702802 6.2421875 113.05859375 C5.7976984 118.4569856 3.66051029 121.58070902 -0.0625 125.3125 C-5.34844339 129.57031064 -11.02012495 129.26606027 -17.5 128.6875 C-25.16816512 124.99034896 -30.63222769 117.56299909 -36.10546875 111.1796875 C-38.44041049 108.49330092 -40.84105136 105.86978928 -43.25 103.25 C-43.71623779 102.74259277 -44.18247559 102.23518555 -44.6628418 101.71240234 C-46.10783534 100.1409318 -47.5537554 98.57031921 -49 97 C-51.8351189 93.92165374 -54.66807355 90.84167672 -57.484375 87.74609375 C-59.01633259 86.07378601 -60.56451211 84.41591539 -62.140625 82.78515625 C-67.70087823 76.88614809 -70.03130104 71.17378553 -70.4375 63.0625 C-69.80078616 49.69150943 -61.33200361 42.52112259 -52 34 C-49.92999433 32.13798533 -47.84692121 30.30344281 -45.72265625 28.50390625 C-43.89569493 26.90894002 -42.19940713 25.22982158 -40.5 23.5 C-37.56010442 20.51385887 -34.48718293 17.75556515 -31.3046875 15.03125 C-29.51967269 13.45801661 -27.7895281 11.86158062 -26.0703125 10.21875 C-25.55299561 9.72922852 -25.03567871 9.23970703 -24.50268555 8.73535156 C-23.48645692 7.77095678 -22.47704311 6.79931061 -21.47583008 5.81933594 C-14.97806419 -0.30935072 -8.55324552 -2.31473971 0 0 Z " fill="#3DCAEB" transform="translate(152,40)"/>
<path d="M0 0 C3.90818689 1.83494141 6.72631746 4.17688578 9.1953125 7.7109375 C10.37642715 11.07080732 10.25180336 14.3602724 10.1875 17.875 C10.1781543 18.62297852 10.16880859 19.37095703 10.15917969 20.14160156 C10.12137405 22.42835795 10.063146 24.7138163 10 27 C9.98598145 27.68674805 9.97196289 28.37349609 9.95751953 29.08105469 C9.9121544 30.97142453 9.83187608 32.86085933 9.75 34.75 C9.70359375 35.83796875 9.6571875 36.9259375 9.609375 38.046875 C8.86822402 41.63860668 7.41813483 43.2886212 5 46 C-0.04928377 53.55834145 0.03559513 62.26524735 1 71 C1.85690574 73.22405589 1.85690574 73.22405589 3.0625 75 C6.39456424 80.37354022 4.80366041 86.74204457 4.19677734 92.74121094 C3.99289721 95.08153231 3.88349695 97.41021654 3.80078125 99.7578125 C3.77072998 100.54881348 3.74067871 101.33981445 3.7097168 102.15478516 C3.65489497 103.67241755 3.60767634 105.19035177 3.56958008 106.70849609 C3.2851565 113.23754747 1.885751 118.77578087 -2.4375 123.875 C-7.57075633 128.13184671 -11.5051185 128.44469341 -18.0859375 128.30859375 C-23.53904625 127.73111977 -25.91829457 125.25250102 -29.375 121.25 C-34.96288915 110.2484383 -30.29271118 91.03932241 -29.1875 79.1875 C-29.00337806 77.1611141 -28.81995614 75.13466447 -28.63720703 73.1081543 C-28.36014873 70.03731804 -28.08254315 66.96654269 -27.80212402 63.89601135 C-27.21594163 57.46688175 -26.66132328 51.03599602 -26.13671875 44.6015625 C-26.07093124 43.80170425 -26.00514374 43.00184601 -25.93736267 42.17774963 C-25.5663535 37.66963028 -25.5663535 37.66963028 -25.20492554 33.16073608 C-23.23609394 8.3154713 -23.23609394 8.3154713 -16 2 C-11.08698373 -1.27534418 -5.7294336 -0.78374328 0 0 Z " fill="#2EABEC" transform="translate(77,41)"/>
<path d="M0 0 C1.13378586 -0.00997513 2.26757172 -0.01995026 3.43571472 -0.03022766 C5.28027252 -0.03122467 5.28027252 -0.03122467 7.16209412 -0.03224182 C8.46857407 -0.04056534 9.77505402 -0.04888885 11.12112427 -0.0574646 C14.69591669 -0.07935027 18.27062359 -0.08820122 21.84547544 -0.09329104 C24.0845542 -0.09694363 26.32361089 -0.10318853 28.5626812 -0.11029243 C36.39075063 -0.13477264 44.218754 -0.14783437 52.04685974 -0.15138245 C59.31551525 -0.15500993 66.5837465 -0.18485206 73.85227257 -0.22678703 C80.11328127 -0.26162788 86.37415042 -0.27693331 92.63525528 -0.27762848 C96.36538819 -0.27841704 100.09508916 -0.28695839 103.82512093 -0.31562614 C107.9963365 -0.34696796 112.16656042 -0.33768175 116.33787537 -0.32521057 C117.55341095 -0.34004486 118.76894653 -0.35487915 120.02131653 -0.37016296 C133.91527289 -0.252562 144.52584441 4.7921939 154.35520935 14.37181091 C161.75708279 22.18719684 167.43282804 32.09634119 167.47029114 43.08474731 C167.48308609 44.78976158 167.48308609 44.78976158 167.49613953 46.52922058 C167.49477997 48.37849152 167.49477997 48.37849152 167.49339294 50.26512146 C167.50011017 51.574814 167.50682739 52.88450653 167.51374817 54.23388672 C167.53136938 57.81681918 167.53610202 61.39965602 167.53737974 64.98262763 C167.53880459 67.22571087 167.54308058 69.46877006 167.54837418 71.71184731 C167.56686461 79.5505845 167.5750464 87.38925381 167.57347107 95.22801208 C167.5722713 102.51255192 167.5933436 109.79679469 167.6249584 117.08125943 C167.65119668 123.35242744 167.66183515 129.62349891 167.66056025 135.89472133 C167.66005265 139.63254393 167.6656227 143.37010261 167.68691635 147.1078701 C167.71005942 151.28418809 167.70073193 155.4598503 167.68870544 159.63621521 C167.69994446 160.85894135 167.71118347 162.08166748 167.72276306 163.34144592 C167.62086195 177.31994167 162.57369613 187.47833931 153.03489685 197.56712341 C145.2696888 204.89253207 135.28151434 210.49672529 124.4057312 210.54830933 C122.70505241 210.56327202 122.70505241 210.56327202 120.97001648 210.57853699 C119.74031128 210.57920166 118.51060608 210.57986633 117.24363708 210.58055115 C115.93715714 210.58887466 114.63067719 210.59719818 113.28460693 210.60577393 C109.70981451 210.6276596 106.13510761 210.63651055 102.56025577 210.64160037 C100.321177 210.64525295 98.08212031 210.65149786 95.84305 210.65860176 C88.01498057 210.68308197 80.1869772 210.6961437 72.35887146 210.69969177 C65.09021595 210.70331926 57.8219847 210.73316139 50.55345863 210.77509636 C44.29244993 210.80993721 38.03158078 210.82524263 31.77047592 210.82593781 C28.04034301 210.82672637 24.31064204 210.83526771 20.58061028 210.86393547 C16.4093947 210.89527729 12.23917078 210.88599108 8.06785583 210.8735199 C6.24455246 210.89577133 6.24455246 210.89577133 4.38441467 210.91847229 C-9.50954169 210.80087133 -20.12011321 205.75611543 -29.94947815 196.17649841 C-37.35135159 188.36111249 -43.02709683 178.45196813 -43.06455994 167.46356201 C-43.0730899 166.32688583 -43.08161987 165.19020966 -43.09040833 164.01908875 C-43.08950195 162.78624146 -43.08859558 161.55339417 -43.08766174 160.28318787 C-43.09437897 158.97349533 -43.10109619 157.6638028 -43.10801697 156.31442261 C-43.12563817 152.73149014 -43.13037082 149.14865331 -43.13164854 145.5656817 C-43.13307338 143.32259846 -43.13734937 141.07953927 -43.14264297 138.83646202 C-43.16113341 130.99772483 -43.1693152 123.15905552 -43.16773987 115.32029724 C-43.1665401 108.0357574 -43.1876124 100.75151463 -43.21922719 93.4670499 C-43.24546548 87.19588189 -43.25610395 80.92481041 -43.25482905 74.653588 C-43.25432144 70.9157654 -43.2598915 67.17820671 -43.28118515 63.44043922 C-43.30432822 59.26412123 -43.29500073 55.08845903 -43.28297424 50.91209412 C-43.29421326 49.68936798 -43.30545227 48.46664185 -43.31703186 47.2068634 C-43.21513075 33.22836765 -38.16796493 23.06997001 -28.62916565 12.98118591 C-20.8639576 5.65577726 -10.87578314 0.05158403 0 0 Z M-33.7971344 21.08665466 C-39.98983099 31.22306196 -42.54738833 40.75446992 -42.44410706 52.56907654 C-42.45286865 53.82781082 -42.46163025 55.0865451 -42.47065735 56.38342285 C-42.49319091 59.79482619 -42.48472422 63.20546216 -42.46876192 66.6168766 C-42.45596623 70.21290039 -42.46788048 73.80886517 -42.47569275 77.40489197 C-42.48475006 83.44004425 -42.47290532 89.47488907 -42.44898987 95.50999451 C-42.42178578 102.45451296 -42.43060276 109.39829706 -42.4581219 116.34279776 C-42.48092471 122.34072888 -42.48395896 128.33844093 -42.47092855 134.33640146 C-42.46319487 137.90317194 -42.46192188 141.46959901 -42.47861099 145.03634644 C-42.49594422 149.01773977 -42.4718197 152.99789798 -42.44410706 156.97923279 C-42.45422821 158.13701736 -42.46434937 159.29480194 -42.47477722 160.4876709 C-42.31952803 172.61479479 -38.00351655 182.65211202 -30.7971344 192.27415466 C-30.2196344 193.14040466 -29.6421344 194.00665466 -29.0471344 194.89915466 C-20.84945787 203.55225766 -9.27610204 209.2670143 2.65196228 209.90907288 C4.93372058 209.93828352 7.21592939 209.94107493 9.49778748 209.92112732 C11.3858889 209.93426971 11.3858889 209.93426971 13.31213379 209.94767761 C16.72353713 209.97021118 20.1341731 209.96174448 23.54558754 209.94578218 C27.14161133 209.93298649 30.73757611 209.94490074 34.33360291 209.95271301 C40.36875519 209.96177032 46.40360001 209.94992558 52.43870544 209.92601013 C59.3832239 209.89880604 66.327008 209.90762303 73.27150869 209.93514216 C79.26943982 209.95794497 85.26715186 209.96097922 91.2651124 209.94794881 C94.83188287 209.94021514 98.39830995 209.93894214 101.96505737 209.95563126 C105.94645071 209.97296449 109.92660892 209.94883996 113.90794373 209.92112732 C115.0657283 209.93124847 116.22351288 209.94136963 117.41638184 209.95179749 C131.37549339 209.77309553 143.06534744 203.97706292 153.3278656 194.77415466 C163.48398097 184.23210691 166.49812442 170.87928279 166.52513123 156.78392029 C166.53506104 155.53902832 166.54499084 154.29413635 166.55522156 153.01152039 C166.57935146 149.61014701 166.59433308 146.20901817 166.60324287 142.80758858 C166.60912999 140.67519219 166.61734449 138.54281668 166.62625122 136.41043091 C166.6535711 129.71753757 166.67291622 123.02469273 166.680655 116.33174753 C166.68959456 108.64556813 166.72460007 100.96010395 166.78265619 93.27414179 C166.82613393 87.30777153 166.84607659 81.34160062 166.84873724 75.37507391 C166.85081706 71.82364132 166.86227519 68.27288224 166.89837646 64.72161865 C167.34453676 41.22157338 167.34453676 41.22157338 157.52708435 20.39524841 C146.17929668 8.84572229 134.19508695 0.81130971 117.41638184 0.59651184 C115.67970497 0.61169357 115.67970497 0.61169357 113.90794373 0.62718201 C112.0198423 0.61403961 112.0198423 0.61403961 110.09359741 0.60063171 C106.68219407 0.57809815 103.2715581 0.58656484 99.86014366 0.60252714 C96.26411987 0.61532283 92.66815509 0.60340859 89.0721283 0.59559631 C83.03697601 0.586539 77.00213119 0.59838374 70.96702576 0.62229919 C64.0225073 0.64950328 57.0787232 0.6406863 50.13422251 0.61316717 C44.13629138 0.59036436 38.13857934 0.5873301 32.1406188 0.60036051 C28.57384833 0.60809419 25.00742125 0.60936719 21.44067383 0.59267807 C17.45928049 0.57534484 13.47912229 0.59946937 9.49778748 0.62718201 C8.3400029 0.61706085 7.18221832 0.6069397 5.98934937 0.59651184 C-9.87968561 0.79966428 -24.24679784 8.39421604 -33.7971344 21.08665466 Z " fill="#8F8F8F" transform="translate(42.79713439941406,-0.2741546630859375)"/>
<path d="M0 0 C0.66 0 1.32 0 2 0 C2 0.99 2 1.98 2 3 C2.66 3 3.32 3 4 3 C5.79435397 14.02659457 6.54087209 25.59383479 2 36 C2.45375 35.505 2.9075 35.01 3.375 34.5 C5 33 5 33 7 33 C7.33 32.01 7.66 31.02 8 30 C8.99 30.33 9.98 30.66 11 31 C10.61328125 31.44730469 10.2265625 31.89460938 9.828125 32.35546875 C8.74442849 33.61352237 7.66523212 34.87546221 6.58984375 36.140625 C5.35051019 37.59006671 4.08623539 39.01819485 2.8125 40.4375 C-1.63987085 46.7322312 -3.07860213 53.35798914 -2 61 C-0.69881004 65.18490825 1.04316928 69.08633857 3 73 C1.68 72.67 0.36 72.34 -1 72 C-0.97679688 73.09957031 -0.95359375 74.19914062 -0.9296875 75.33203125 C-0.81970383 82.85184471 -0.88198868 89.92269649 -2.49609375 97.3046875 C-3.28500495 101.52444509 -3.44581686 105.77237301 -3.65625 110.0546875 C-4.00951517 113.08152769 -4.61694912 115.29015794 -6 118 C-10.97029647 121.8070356 -14.4940508 123.13536411 -20.6875 123.0625 C-21.68136719 123.05347656 -22.67523438 123.04445313 -23.69921875 123.03515625 C-24.45847656 123.02355469 -25.21773437 123.01195312 -26 123 C-26 122.67 -26 122.34 -26 122 C-25.19175781 121.91363281 -24.38351563 121.82726562 -23.55078125 121.73828125 C-16.85344534 120.89546994 -16.85344534 120.89546994 -10.9375 117.875 C-5.65353309 110.03427491 -5.33384231 102.08697509 -4.8125 92.875 C-4.73064453 91.62589844 -4.64878906 90.37679687 -4.56445312 89.08984375 C-4.35088823 85.72664531 -4.14653067 82.36678559 -4 79 C-3.95190186 77.94699707 -3.90380371 76.89399414 -3.85424805 75.80908203 C-3.79487945 72.75034362 -3.79487945 72.75034362 -6 69.625 C-9.29187173 63.44385955 -9.15368469 55.79281591 -8 49 C-6.16291708 43.79119781 -3.93686636 38.93686636 0 35 C1.18154025 27.40916123 1.09018385 19.54864525 1.125 11.875 C1.12967285 11.15304443 1.1343457 10.43108887 1.13916016 9.68725586 C1.12882954 6.31828359 1.05107407 3.21995706 0 0 Z " fill="#BCDEEF" transform="translate(85,47)"/>
<path d="M0 0 C16.59493237 -0.11715659 33.18972917 -0.20514547 49.78497601 -0.25906086 C57.49163889 -0.28476777 65.1980438 -0.31977297 72.90454102 -0.37719727 C79.62689535 -0.42726414 86.34906272 -0.45934553 93.07159835 -0.47044247 C96.62637966 -0.47692226 100.18062641 -0.49199074 103.73523521 -0.52865028 C107.71784864 -0.56938515 111.69955158 -0.56993468 115.68237305 -0.56762695 C116.84187973 -0.58560333 118.00138641 -0.60357971 119.19602966 -0.62210083 C132.90591932 -0.5366909 143.47280761 4.66406113 153.15234375 14.09765625 C157.97990197 19.19491046 161.33786256 24.50975019 164 31 C164.34610321 31.78239044 164.69220642 32.56478088 165.04879761 33.37088013 C166.45859765 38.74968636 166.26066095 43.98553316 166.22705078 49.52294922 C166.22734283 50.78203598 166.22763489 52.04112274 166.22793579 53.33836365 C166.22850798 56.77803893 166.21677546 60.2175738 166.20278788 63.65721655 C166.19025813 67.25666937 166.18910825 70.85612566 166.18673706 74.45559692 C166.18052887 81.26591855 166.16412704 88.07617572 166.14403808 94.88646901 C166.12165846 102.64219515 166.11068047 110.39792443 166.10064721 118.15367484 C166.0797602 134.10248718 166.04459713 150.05123527 166 166 C165.67 166 165.34 166 165 166 C165.00056554 165.03895434 165.00056554 165.03895434 165.0011425 164.05849361 C165.00828677 148.40578242 164.98211761 132.75352473 164.9197216 117.10095119 C164.89033382 109.53117668 164.87186274 101.96168068 164.87988281 94.3918457 C164.88685169 87.78722221 164.87253138 81.18303054 164.83356392 74.57851273 C164.81368513 71.08740618 164.80384371 67.59697579 164.81957626 64.10583305 C164.89391305 45.64679289 164.88361071 29.86947819 151.3203125 15.97265625 C140.68494408 5.45103508 127.86312853 1.38925495 113.18481445 1.45410156 C111.95425827 1.44376389 110.72370209 1.43342621 109.45585632 1.42277527 C106.11750133 1.39852165 102.77998418 1.39150482 99.44160104 1.39249516 C95.93951561 1.38934384 92.43759258 1.36368005 88.93559265 1.34051514 C82.32025831 1.30012006 75.70502214 1.27965351 69.08958358 1.26654124 C61.55129493 1.25061493 54.01317201 1.21217598 46.47498 1.17194796 C30.9833694 1.08977508 15.49179207 1.03554218 0 1 C0 0.67 0 0.34 0 0 Z " fill="#909090" transform="translate(44,0)"/>
<path d="M0 0 C3.19738115 2.51336429 5.65886874 5.21762984 7.1328125 8.984375 C7.81056832 15.13124374 7.93682854 20.82178181 4.1328125 25.984375 C2.0703125 26.609375 2.0703125 26.609375 0.1328125 26.984375 C-0.57113362 28.29840776 -1.23064408 29.6364007 -1.8671875 30.984375 C-4.41435315 33.72747646 -6.74858766 35.90530844 -9.8671875 37.984375 C-8.43157064 34.79730558 -6.66452421 32.36268395 -4.3671875 29.734375 C-3.45453125 28.67476562 -3.45453125 28.67476562 -2.5234375 27.59375 C-0.8671875 25.984375 -0.8671875 25.984375 1.1328125 25.984375 C1.1328125 25.324375 1.1328125 24.664375 1.1328125 23.984375 C1.7928125 23.984375 2.4528125 23.984375 3.1328125 23.984375 C4.65820179 18.74006139 4.9028383 13.38210486 4.1328125 7.984375 C0.49219478 3.97036059 -3.53848214 3.44651778 -8.71875 2.96484375 C-12.02157657 2.99486945 -14.74699138 3.94430963 -17.8671875 4.984375 C-17.8671875 5.644375 -17.8671875 6.304375 -17.8671875 6.984375 C-19.23046875 8.39453125 -19.23046875 8.39453125 -21.1796875 10.046875 C-21.90027344 10.65789063 -22.62085938 11.26890625 -23.36328125 11.8984375 C-24.18957031 12.58679687 -25.01585937 13.27515625 -25.8671875 13.984375 C-26.82753906 14.79648437 -27.78789063 15.60859375 -28.77734375 16.4453125 C-36.60565359 22.984375 -36.60565359 22.984375 -38.8671875 22.984375 C-39.1971875 23.974375 -39.5271875 24.964375 -39.8671875 25.984375 C-40.5271875 25.984375 -41.1871875 25.984375 -41.8671875 25.984375 C-41.8671875 26.644375 -41.8671875 27.304375 -41.8671875 27.984375 C-43.4765625 29.640625 -43.4765625 29.640625 -45.6171875 31.484375 C-46.31328125 32.0928125 -47.009375 32.70125 -47.7265625 33.328125 C-49.8671875 34.984375 -49.8671875 34.984375 -52.0078125 35.953125 C-54.3759059 37.26652134 -54.74120214 38.56762593 -55.8671875 40.984375 C-57.453125 42.546875 -57.453125 42.546875 -59.2421875 43.984375 C-61.93260935 46.19737335 -64.44912375 48.4695887 -66.8671875 50.984375 C-66.28505927 47.71949131 -65.33722872 46.07788394 -62.99609375 43.75 C-62.13467773 42.88955078 -62.13467773 42.88955078 -61.25585938 42.01171875 C-60.65322266 41.42519531 -60.05058594 40.83867188 -59.4296875 40.234375 C-58.83091797 39.63238281 -58.23214844 39.03039062 -57.61523438 38.41015625 C-53.13425631 33.984375 -53.13425631 33.984375 -50.8671875 33.984375 C-50.79371094 33.24703125 -50.72023438 32.5096875 -50.64453125 31.75 C-49.65441539 28.22737672 -48.21144112 27.07781799 -45.4296875 24.734375 C-44.5221875 23.95449219 -43.6146875 23.17460938 -42.6796875 22.37109375 C-41.2875 21.18966797 -41.2875 21.18966797 -39.8671875 19.984375 C-38.21599076 18.51119791 -36.57003371 17.03212437 -34.9296875 15.546875 C-34.10984375 14.81339844 -33.29 14.07992187 -32.4453125 13.32421875 C-30.62371916 11.67098479 -28.82351369 9.99403811 -27.0390625 8.30078125 C-19.2820436 0.99943423 -10.98631521 -5.97581999 0 0 Z " fill="#83EEF0" transform="translate(153.8671875,41.015625)"/>
<path d="M0 0 C0.33 0 0.66 0 1 0 C1.08203325 1.70750683 1.13965342 3.41619348 1.1875 5.125 C1.23970703 6.55199219 1.23970703 6.55199219 1.29296875 8.0078125 C0.61804725 14.90101074 -3.29970365 18.59383358 -8.25 22.875 C-12.62161256 26.76964367 -16.62674489 30.69176875 -20.3828125 35.1953125 C-22.18903268 37.21094951 -24.12951122 38.93104804 -26.1875 40.6875 C-29.93793738 43.89281566 -33.16853374 46.78275664 -34.9375 51.5 C-35.0217748 54.87099195 -34.06182621 56.36939415 -32 59 C-31.360625 59.309375 -30.72125 59.61875 -30.0625 59.9375 C-27.01019225 61.50990096 -25.88805529 64.16791707 -24 67 C-22.98856173 67.90977308 -21.94561038 68.78566225 -20.875 69.625 C-18.09828543 71.91880769 -17.52285325 72.95429351 -16 76 C-15.13375 76.680625 -14.2675 77.36125 -13.375 78.0625 C-7.46585435 82.73450925 -2.34115296 89.83677079 0 97 C0.45484049 102.73099012 0.08087275 106.0068614 -3 111 C-3.37511719 111.62390625 -3.75023437 112.2478125 -4.13671875 112.890625 C-7.29309755 117.78948421 -7.29309755 117.78948421 -10.30859375 118.6875 C-13.12092872 119.01404107 -15.85613548 119.16818646 -18.6875 119.1875 C-19.64011719 119.20167969 -20.59273437 119.21585937 -21.57421875 119.23046875 C-24 119 -24 119 -26 117 C-25.43152344 117.03480469 -24.86304688 117.06960937 -24.27734375 117.10546875 C-17.57489246 117.34044617 -13.03748887 116.46282881 -7.6875 112.125 C-3.87652543 107.32599499 -3.26446341 102.17141562 -3.3671875 96.19140625 C-4.57183382 90.11612204 -8.75399061 86.27822494 -13 82 C-13.77730469 81.2059375 -14.55460937 80.411875 -15.35546875 79.59375 C-16.85032271 78.09117734 -18.35664184 76.59991134 -19.875 75.12109375 C-22.4959558 72.50495588 -24.89004242 69.7335953 -27.296875 66.921875 C-29.61703975 64.30370744 -32.09968395 61.87250202 -34.6171875 59.4453125 C-37.00342881 56.95121848 -37.18244159 55.03727132 -37.25 51.6875 C-37.27578125 50.92824219 -37.3015625 50.16898438 -37.328125 49.38671875 C-36.65103298 44.46168039 -33.64417953 41.38506621 -30 38.25 C-28.81664062 37.22712891 -28.81664062 37.22712891 -27.609375 36.18359375 C-23.968001 33.13639605 -20.2863163 30.14125003 -16.578125 27.17578125 C-13.08689002 24.22939052 -9.94913281 21.00336897 -6.8125 17.6875 C-5 16 -5 16 -3 16 C-2.855625 15.195625 -2.71125 14.39125 -2.5625 13.5625 C-2 11 -2 11 -1 10 C-0.76712992 8.31816052 -0.58735834 6.6287584 -0.4375 4.9375 C-0.35371094 4.01839844 -0.26992187 3.09929688 -0.18359375 2.15234375 C-0.09271484 1.08693359 -0.09271484 1.08693359 0 0 Z " fill="#C6E1EA" transform="translate(161,51)"/>
<path d="M0 0 C3.89978897 1.86615669 6.72130358 4.16970905 9.1953125 7.7109375 C10.37642715 11.07080732 10.25180336 14.3602724 10.1875 17.875 C10.1781543 18.62297852 10.16880859 19.37095703 10.15917969 20.14160156 C10.12137405 22.42835795 10.063146 24.7138163 10 27 C9.98598145 27.68674805 9.97196289 28.37349609 9.95751953 29.08105469 C9.9121544 30.97142453 9.83187608 32.86085933 9.75 34.75 C9.70359375 35.83796875 9.6571875 36.9259375 9.609375 38.046875 C8.86845166 41.63750347 7.40564007 43.27960328 5 46 C0.96348899 52.67626106 0.26019593 59.31121028 0 67 C-0.33 67 -0.66 67 -1 67 C-2.63401965 58.62193561 -1.94522131 53.3815939 2.359375 45.984375 C6.46916497 38.50847133 7.43487347 32.4590113 7.25 23.9375 C7.24226563 22.50567383 7.24226563 22.50567383 7.234375 21.04492188 C7.17797121 15.9368538 6.86588332 11.03469251 6 6 C5.21625 5.855625 4.4325 5.71125 3.625 5.5625 C1 5 1 5 -1 4 C-7.44623348 3.57729617 -10.604439 4.2332466 -15.6875 8.375 C-19.34294233 12.90078574 -19.50678523 18.31263344 -20 23.875 C-20.50326768 29.49482245 -21.27704563 34.61576758 -23 40 C-23.66 39.67 -24.32 39.34 -25 39 C-25.20067214 32.67882762 -24.86459033 26.52902908 -24.1875 20.25 C-24.11740723 19.52949463 -24.04731445 18.80898926 -23.97509766 18.06665039 C-23.17483909 11.15264002 -20.80413373 5.57768058 -15.28515625 1.1484375 C-10.413739 -1.29976194 -5.24735151 -0.98226284 0 0 Z " fill="#53E6F6" transform="translate(77,41)"/>
<path d="M0 0 C1.28116621 2.56233241 0.94751399 3.97291294 0.65454102 6.81689453 C0.55436172 7.81778107 0.45418243 8.8186676 0.35096741 9.84988403 C0.23643723 10.93325043 0.12190704 12.01661682 0.00390625 13.1328125 C-0.10848892 14.23978485 -0.22088409 15.3467572 -0.33668518 16.48727417 C-0.69806949 20.03377685 -1.06769384 23.57936656 -1.4375 27.125 C-1.6834846 29.5246841 -1.9289343 31.92442309 -2.17382812 34.32421875 C-2.77633944 40.21679761 -3.38562382 46.10864704 -4 52 C-4.66 52 -5.32 52 -6 52 C-6 54.64 -6 57.28 -6 60 C-6.66 60 -7.32 60 -8 60 C-7.69261718 47.76616388 -6.67654164 35.61945722 -5.38439941 23.45495605 C-5.21168626 21.82039879 -5.0432984 20.18537862 -4.87927246 18.54992676 C-4.64358532 16.21916403 -4.39066171 13.89090277 -4.1328125 11.5625 C-4.06395844 10.85905457 -3.99510437 10.15560913 -3.92416382 9.43084717 C-3.46190761 5.47151435 -2.748002 2.93671003 0 0 Z " fill="#48B9F2" transform="translate(55,76)"/>
<path d="M0 0 C0.66 0.33 1.32 0.66 2 1 C0.11204204 2.80063614 -1.78456911 4.59030514 -3.6875 6.375 C-4.48317383 7.13683594 -4.48317383 7.13683594 -5.29492188 7.9140625 C-8.42520052 10.83309535 -10.97041791 12.44625123 -15 14 C-15.33 14.99 -15.66 15.98 -16 17 C-16.66 17 -17.32 17 -18 17 C-18 17.66 -18 18.32 -18 19 C-19.609375 20.65625 -19.609375 20.65625 -21.75 22.5 C-22.44609375 23.1084375 -23.1421875 23.716875 -23.859375 24.34375 C-26 26 -26 26 -28.140625 26.96875 C-30.5087184 28.28214634 -30.87401464 29.58325093 -32 32 C-33.5859375 33.5625 -33.5859375 33.5625 -35.375 35 C-38.06542185 37.21299835 -40.58193625 39.4852137 -43 42 C-42.41787177 38.73511631 -41.47004122 37.09350894 -39.12890625 34.765625 C-38.26749023 33.90517578 -38.26749023 33.90517578 -37.38867188 33.02734375 C-36.78603516 32.44082031 -36.18339844 31.85429688 -35.5625 31.25 C-34.96373047 30.64800781 -34.36496094 30.04601562 -33.74804688 29.42578125 C-29.26706881 25 -29.26706881 25 -27 25 C-26.93167969 24.27039063 -26.86335938 23.54078125 -26.79296875 22.7890625 C-25.76390024 19.16958016 -24.1340324 17.82960666 -21.3125 15.375 C-20.46300781 14.61960937 -19.61351563 13.86421875 -18.73828125 13.0859375 C-15.94662031 10.95933701 -13.1588462 9.50803674 -10 8 C-8.97980427 7.0206121 -7.97850195 6.02104551 -7 5 C-5.34051852 3.98812105 -3.67419438 2.9873454 -2 2 C-1.34 1.34 -0.68 0.68 0 0 Z " fill="#64EEF7" transform="translate(130,50)"/>
<path d="M0 0 C0.33 0 0.66 0 1 0 C1.9033982 10.16322969 -2.73427814 18.56511825 -8.80078125 26.42578125 C-16.09103642 34.95913499 -24.96323039 41.30212298 -36 44 C-38.33212027 44.07522969 -40.6685311 44.09325876 -43 44 C-39.70485332 42.24471606 -36.32399036 41.00859869 -32.8125 39.75 C-26.91803718 37.49254615 -21.94720342 34.91491294 -17 31 C-16.38640625 30.52304688 -15.7728125 30.04609375 -15.140625 29.5546875 C-6.87526655 22.27678337 -2.52953928 10.45542903 0 0 Z " fill="#797979" transform="translate(209,166)"/>
<path d="M0 0 C9.4217442 -0.92370041 18.28453778 2.66263704 25.8125 8.25 C34.97672801 16.03539004 42.03893763 25.1557505 45 37 C45.125 40.375 45.125 40.375 45 43 C43.70818128 40.61876733 42.76554864 38.32033612 41.87890625 35.75 C37.46284428 23.17012019 30.55154898 13.66423462 18.55078125 7.17578125 C12.53915234 4.40472413 6.52197396 2.18262005 0 1 C0 0.67 0 0.34 0 0 Z " fill="#7E7E7E" transform="translate(165,0)"/>
<path d="M0 0 C1.75528394 3.29514668 2.99140131 6.67600964 4.25 10.1875 C8.89191574 22.35204977 16.46719253 31.6847937 28 38 C30.57004654 39.00720852 33.18164378 39.85418573 35.8125 40.6875 C36.50537109 40.91244141 37.19824219 41.13738281 37.91210938 41.36914062 C39.60629082 41.91828909 41.30290633 42.45991862 43 43 C43 43.33 43 43.66 43 44 C29.40491091 43.12289748 20.01095053 37.50341386 10.75 27.6875 C3.9962569 19.80364849 -0.41858075 10.46451868 0 0 Z " fill="#777777" transform="translate(0,166)"/>
<path d="M0 0 C4.95316804 4.79338843 4.95316804 4.79338843 5.1328125 9.421875 C5.13753383 10.86457796 5.1344375 12.30732018 5.125 13.75 C5.12016602 14.50700195 5.11533203 15.26400391 5.11035156 16.04394531 C5.0860629 18.36302716 5.04673259 20.68126788 5 23 C4.98743164 23.68964844 4.97486328 24.37929687 4.96191406 25.08984375 C4.91612853 26.97732913 4.83391879 28.8638253 4.75 30.75 C4.68039063 32.38195312 4.68039063 32.38195312 4.609375 34.046875 C3.86845166 37.63750347 2.40564007 39.27960328 0 42 C-4.03651101 48.67626106 -4.73980407 55.31121028 -5 63 C-5.33 63 -5.66 63 -6 63 C-7.63401965 54.62193561 -6.94522131 49.3815939 -2.640625 41.984375 C1.43458912 34.57136646 2.45709454 28.51260478 2.3125 20.0625 C2.31572266 19.12470703 2.31894531 18.18691406 2.32226562 17.22070312 C2.27623373 11.19889423 1.50122681 5.83145872 0 0 Z " fill="#53C1E1" transform="translate(82,45)"/>
<path d="M0 0 C0.33 0.66 0.66 1.32 1 2 C0.25556641 2.63615234 0.25556641 2.63615234 -0.50390625 3.28515625 C-2.68734759 5.17029062 -4.84338496 7.08426343 -7 9 C-7.99966797 9.84498047 -7.99966797 9.84498047 -9.01953125 10.70703125 C-14.71294615 15.82511159 -15.70873856 20.3462895 -16.17578125 27.80859375 C-16.31073358 33.04332355 -15.81061311 37.05099085 -14 42 C-14.375 44.375 -14.375 44.375 -15 46 C-19.92018635 38.39607565 -21.11001861 31.48933954 -19.59375 22.625 C-16.88644821 13.67913322 -8.92877216 6.93044048 -2 1 C-1.34 0.67 -0.68 0.34 0 0 Z " fill="#53C7E6" transform="translate(102,73)"/>
<path d="M0 0 C0 0.33 0 0.66 0 1 C-0.88300781 1.20753906 -1.76601563 1.41507812 -2.67578125 1.62890625 C-16.0780999 5.06945851 -27.36876379 11.4146764 -35.2890625 23.0703125 C-39.05887956 29.52547871 -41.71971519 36.63155233 -43 44 C-43.33 44 -43.66 44 -44 44 C-44.9033982 33.83677031 -40.26572186 25.43488175 -34.19921875 17.57421875 C-25.44512771 7.32742302 -13.89855715 -0.55594229 0 0 Z " fill="#717171" transform="translate(44,0)"/>
<path d="M0 0 C0.33 0.66 0.66 1.32 1 2 C0.27554688 1.96519531 -0.44890625 1.93039063 -1.1953125 1.89453125 C-7.90245624 1.70673123 -12.32088439 2.10926631 -17.75 6.375 C-22.16634164 12.11624413 -21.12387116 18.68196123 -20.921875 25.51953125 C-20.82674893 30.79110095 -21.26010088 35.01138298 -23 40 C-23.66 39.67 -24.32 39.34 -25 39 C-25.20067214 32.67882762 -24.86459033 26.52902908 -24.1875 20.25 C-24.11740723 19.52949463 -24.04731445 18.80898926 -23.97509766 18.06665039 C-23.17165078 11.1250939 -20.76693564 5.64552546 -15.31640625 1.125 C-10.55727984 -1.18634638 -5.14967535 -0.41816913 0 0 Z " fill="#67D2E3" transform="translate(77,41)"/>
<path d="M0 0 C0.33 0 0.66 0 1 0 C0.97679687 1.26457031 0.95359375 2.52914062 0.9296875 3.83203125 C0.91092874 5.4921816 0.89272865 7.15233833 0.875 8.8125 C0.85824219 9.64587891 0.84148438 10.47925781 0.82421875 11.33789062 C0.81777344 12.14033203 0.81132813 12.94277344 0.8046875 13.76953125 C0.79421387 14.50792236 0.78374023 15.24631348 0.77294922 16.00708008 C0.88258521 18.31890676 0.88258521 18.31890676 3 21 C3.309375 22.19625 3.61875 23.3925 3.9375 24.625 C4.288125 25.73875 4.63875 26.8525 5 28 C5.99 28.33 6.98 28.66 8 29 C8 29.66 8 30.32 8 31 C16.415 30.505 16.415 30.505 25 30 C24.67 30.66 24.34 31.32 24 32 C17.98633702 34.00455433 11.28622004 34.02063395 5.5 31.4375 C0.33215521 26.39885133 -1.18115019 23.33666751 -1.31689453 16.08691406 C-1.30575412 10.63801442 -1.03043042 5.36996669 0 0 Z " fill="#4187DC" transform="translate(47,136)"/>
<path d="M0 0 C2.475 0.495 2.475 0.495 5 1 C5 1.66 5 2.32 5 3 C5.66 3 6.32 3 7 3 C7.0825 3.61875 7.165 4.2375 7.25 4.875 C7.81258459 7.18437567 7.81258459 7.18437567 10.0625 8.25 C10.701875 8.4975 11.34125 8.745 12 9 C12 9.66 12 10.32 12 11 C12.99 11.33 13.98 11.66 15 12 C16.15764953 13.7364743 17.01714998 15.53487162 17.9375 17.40625 C18.98949358 19.33757598 18.98949358 19.33757598 22 20 C23.60546875 22.06640625 23.60546875 22.06640625 25.1875 24.5625 C25.71730469 25.38878906 26.24710938 26.21507812 26.79296875 27.06640625 C27.19128906 27.70449219 27.58960937 28.34257812 28 29 C27.67 29.66 27.34 30.32 27 31 C24.12686353 27.89119614 21.25526308 24.78101035 18.38671875 21.66796875 C16.23087184 19.32943341 14.06704025 16.99883948 11.89453125 14.67578125 C10.929664 13.63804268 9.96481925 12.60028319 9 11.5625 C8.13375 10.63566406 7.2675 9.70882812 6.375 8.75390625 C3.95063409 5.94275828 1.98888821 3.12605346 0 0 Z " fill="#45B5E8" transform="translate(88,119)"/>
<path d="M0 0 C0.66 0.33 1.32 0.66 2 1 C0.44221619 2.7543973 -1.12094705 4.50346011 -2.6875 6.25 C-3.55761719 7.22453125 -4.42773438 8.1990625 -5.32421875 9.203125 C-7.75851487 11.74758635 -10.13839317 13.952513 -13 16 C-13.66 16 -14.32 16 -15 16 C-15.33 16.99 -15.66 17.98 -16 19 C-18 20.5 -18 20.5 -20 22 C-21.04976964 25.14930893 -21.10131595 27.38814456 -21.0625 30.6875 C-21.05347656 31.68136719 -21.04445313 32.67523438 -21.03515625 33.69921875 C-21.02355469 34.45847656 -21.01195313 35.21773437 -21 36 C-22.97805311 34.36119083 -23.91505716 33.48773628 -24.36328125 30.9140625 C-24.26586411 26.52279737 -24.06047811 22.99217633 -22 19 C-21.01 19 -20.02 19 -19 19 C-18.7525 18.4225 -18.505 17.845 -18.25 17.25 C-16.31771741 13.77189135 -13.98277276 11.57958394 -10.5625 9.5625 C-7.55986954 7.73162777 -5.41664418 5.54383598 -3 3 C-2 2 -1 1 0 0 Z " fill="#5DD4E4" transform="translate(146,73)"/>
<path d="M0 0 C1.75 0.125 1.75 0.125 4 1 C5.3540932 2.98600337 6.68457624 4.98817543 8 7 C9.01014279 7.91121128 10.05312761 8.78727449 11.125 9.625 C13.90171457 11.91880769 14.47714675 12.95429351 16 16 C16.86625 16.680625 17.7325 17.36125 18.625 18.0625 C23.31049957 21.78299593 27.12816665 26.7777773 30 32 C29.72265625 34.33984375 29.72265625 34.33984375 29 36 C28.44054687 34.9584375 27.88109375 33.916875 27.3046875 32.84375 C25.28215564 29.31273907 22.92881566 26.46573815 20.125 23.5 C19.43120239 22.7577417 19.43120239 22.7577417 18.72338867 22.00048828 C17.15632638 20.32651643 15.57928003 18.6624484 14 17 C12.07332406 14.97060142 10.14813618 12.93991188 8.22802734 10.90429688 C6.96378097 9.56496271 5.6946584 8.23021253 4.42041016 6.90039062 C3.84468262 6.29130859 3.26895508 5.68222656 2.67578125 5.0546875 C2.15927002 4.51312012 1.64275879 3.97155273 1.1105957 3.41357422 C0 2 0 2 0 0 Z " fill="#D0ECF4" transform="translate(129,111)"/>
<path d="M0 0 C4.29245529 1.53301975 6.01922537 3.9677088 8 8 C8.82618373 14.11012806 8.77509406 19.87665806 5 25 C2.9375 25.625 2.9375 25.625 1 26 C0.29605388 27.31403276 -0.36345658 28.6520257 -1 30 C-3.54716565 32.74310146 -5.88140016 34.92093344 -9 37 C-7.56438314 33.81293058 -5.79733671 31.37830895 -3.5 28.75 C-2.8915625 28.04359375 -2.283125 27.3371875 -1.65625 26.609375 C0 25 0 25 2 25 C2 24.34 2 23.68 2 23 C2.66 23 3.32 23 4 23 C4.99964425 19.62721655 5.22982711 16.44892242 5.3125 12.9375 C5.34988281 11.89464844 5.38726562 10.85179687 5.42578125 9.77734375 C5.28535736 6.87649017 5.28535736 6.87649017 3.02734375 5.265625 C2.02380859 4.63914062 2.02380859 4.63914062 1 4 C0.25 1.8125 0.25 1.8125 0 0 Z " fill="#84E2E7" transform="translate(153,42)"/>
<path d="M0 0 C0.33 0 0.66 0 1 0 C1 9.24 1 18.48 1 28 C0.34 28 -0.32 28 -1 28 C-1 30.64 -1 33.28 -1 36 C-1.66 36 -2.32 36 -3 36 C-2.5288245 23.89822931 -1.72523352 11.99288543 0 0 Z " fill="#55A7E1" transform="translate(50,100)"/>
<path d="M0 0 C0.66 0.33 1.32 0.66 2 1 C1.69191406 1.66386719 1.38382813 2.32773437 1.06640625 3.01171875 C-0.20688657 6.5797371 -0.66680771 10.06966118 -1.0625 13.8125 C-1.14483887 14.54718506 -1.22717773 15.28187012 -1.31201172 16.03881836 C-2.13460079 23.67586561 -2.60774749 31.33043117 -3 39 C-3.33 39 -3.66 39 -4 39 C-4.02891949 34.70834738 -4.04677118 30.41671964 -4.0625 26.125 C-4.07087891 24.90167969 -4.07925781 23.67835937 -4.08789062 22.41796875 C-4.09111328 21.25136719 -4.09433594 20.08476563 -4.09765625 18.8828125 C-4.10289307 17.80402832 -4.10812988 16.72524414 -4.11352539 15.61376953 C-4 13 -4 13 -3 11 C-2.77532169 9.46331135 -2.59203195 7.92031946 -2.4375 6.375 C-2.35371094 5.55773438 -2.26992188 4.74046875 -2.18359375 3.8984375 C-2.12300781 3.27195313 -2.06242187 2.64546875 -2 2 C-1.34 2 -0.68 2 0 2 C0 1.34 0 0.68 0 0 Z " fill="#D3F5FB" transform="translate(55,47)"/>
<path d="M0 0 C0.66 0 1.32 0 2 0 C2 0.99 2 1.98 2 3 C2.66 3 3.32 3 4 3 C4.86510107 8.24597291 5.18280627 13.31169634 5.1875 18.625 C5.19974609 19.36234375 5.21199219 20.0996875 5.22460938 20.859375 C5.23580826 25.02536049 4.87155235 28.25689529 3 32 C2.67 32 2.34 32 2 32 C2.01047363 31.24380371 2.02094727 30.48760742 2.03173828 29.70849609 C2.07345416 26.26403155 2.09937583 22.8196203 2.125 19.375 C2.14175781 18.18519531 2.15851563 16.99539062 2.17578125 15.76953125 C2.18222656 14.61582031 2.18867187 13.46210937 2.1953125 12.2734375 C2.20578613 11.21560059 2.21625977 10.15776367 2.22705078 9.06787109 C1.98270857 5.76636112 1.16882977 3.08587237 0 0 Z " fill="#D0EAF0" transform="translate(85,47)"/>
<path d="M0 0 C4.97030879 4.80997625 4.97030879 4.80997625 5.09765625 9.9140625 C5.09100226 11.48440463 5.07906939 13.05473119 5.0625 14.625 C5.05798828 15.42679688 5.05347656 16.22859375 5.04882812 17.0546875 C5.03703168 19.03649006 5.01909605 21.01825433 5 23 C4.34 23 3.68 23 3 23 C2.1116101 19.99049313 1.94667258 17.43984042 2.0625 14.3125 C2.12949327 9.30289251 1.30401285 4.82019034 0 0 Z " fill="#57D5E7" transform="translate(82,45)"/>
<path d="M0 0 C0.66 0.33 1.32 0.66 2 1 C0.37660195 2.70884005 -1.29319053 4.37446717 -3 6 C-3.66 6 -4.32 6 -5 6 C-5.26039062 6.598125 -5.52078125 7.19625 -5.7890625 7.8125 C-7.08108629 10.14647847 -8.30868813 11.33973195 -10.375 13 C-13.06542185 15.21299835 -15.58193625 17.4852137 -18 20 C-17.41787177 16.73511631 -16.47004122 15.09350894 -14.12890625 12.765625 C-13.55462891 12.19199219 -12.98035156 11.61835937 -12.38867188 11.02734375 C-11.4847168 10.14755859 -11.4847168 10.14755859 -10.5625 9.25 C-9.96373047 8.64800781 -9.36496094 8.04601562 -8.74804688 7.42578125 C-4.26706881 3 -4.26706881 3 -2 3 C-2 2.34 -2 1.68 -2 1 C-1.34 0.67 -0.68 0.34 0 0 Z " fill="#4FE3FC" transform="translate(105,72)"/>
<path d="M0 0 C0.33 0 0.66 0 1 0 C1.33 1.98 1.66 3.96 2 6 C0.89932004 6.81721717 -0.20569731 7.62859451 -1.3125 8.4375 C-1.92738281 8.88996094 -2.54226562 9.34242188 -3.17578125 9.80859375 C-6.66668762 12.08852189 -9.63690371 12.11015407 -13.6875 12.0625 C-14.68136719 12.05347656 -15.67523438 12.04445312 -16.69921875 12.03515625 C-17.83810547 12.01775391 -17.83810547 12.01775391 -19 12 C-19 11.67 -19 11.34 -19 11 C-17.78763672 10.87044922 -17.78763672 10.87044922 -16.55078125 10.73828125 C-9.74980761 9.9042803 -9.74980761 9.9042803 -3.875 6.625 C-2.32234752 4.45128653 -1.00621901 2.4698103 0 0 Z " fill="#B5D1EF" transform="translate(78,158)"/>
<path d="M0 0 C2.31 0.33 4.62 0.66 7 1 C7 1.66 7 2.32 7 3 C7.74765625 2.84402344 8.4953125 2.68804687 9.265625 2.52734375 C10.74289063 2.23537109 10.74289063 2.23537109 12.25 1.9375 C13.71179688 1.64166016 13.71179688 1.64166016 15.203125 1.33984375 C17.868119 1.01602465 19.48871723 1.14496801 22 2 C15.94446107 5.3641883 10.75275249 5.62407971 4 4 C1.3125 1.9375 1.3125 1.9375 0 0 Z " fill="#55B6E4" transform="translate(129,164)"/>
<path d="M0 0 C0.66 0 1.32 0 2 0 C3.60228383 1.70940029 5.01294742 3.53301528 6.46484375 5.37109375 C8.00756886 7.26558258 8.00756886 7.26558258 11 8 C12.60546875 10.06640625 12.60546875 10.06640625 14.1875 12.5625 C14.98220703 13.80193359 14.98220703 13.80193359 15.79296875 15.06640625 C16.19128906 15.70449219 16.58960937 16.34257812 17 17 C16.67 17.66 16.34 18.32 16 19 C14.08122455 16.93942825 12.16494202 14.87662937 10.25 12.8125 C9.71117188 12.23435547 9.17234375 11.65621094 8.6171875 11.06054688 C0 1.76028963 0 1.76028963 0 0 Z " fill="#56B6E5" transform="translate(99,131)"/>
<path d="M0 0 C0.33 0 0.66 0 1 0 C1 6.27 1 12.54 1 19 C0.34 18.67 -0.32 18.34 -1 18 C-2.36145995 11.65383991 -2.28588134 6.05086238 0 0 Z " fill="#DEE3EA" transform="translate(80,95)"/>
<path d="M0 0 C0.33 0 0.66 0 1 0 C1.51871665 7.56173611 1.76314334 13.36220901 -2.7109375 19.70703125 C-3.13632813 20.13371094 -3.56171875 20.56039062 -4 21 C-4.66 21 -5.32 21 -6 21 C-6 20.01 -6 19.02 -6 18 C-5.34 17.67 -4.68 17.34 -4 17 C-3.11774399 14.63052446 -3.11774399 14.63052446 -2.4375 11.8125 C-2.18226562 10.8225 -1.92703125 9.8325 -1.6640625 8.8125 C-0.9737344 5.88875745 -0.40238896 2.97767827 0 0 Z " fill="#3C8FDF" transform="translate(78,145)"/>
<path d="M0 0 C0.99 0.495 0.99 0.495 2 1 C1.95359375 1.82242188 1.9071875 2.64484375 1.859375 3.4921875 C1.60733252 11.28750149 2.48166683 17.03398291 6 24 C6.33 24.66 6.66 25.32 7 26 C3.0934835 24.51821788 1.71717655 22.78559376 0 19 C-0.35825347 15.7193643 -0.28332839 12.48252247 -0.1875 9.1875 C-0.17396484 8.30384766 -0.16042969 7.42019531 -0.14648438 6.50976562 C-0.11129217 4.33957977 -0.05748985 2.16970967 0 0 Z " fill="#C4E6F5" transform="translate(81,94)"/>
<path d="M0 0 C0.33 0.99 0.66 1.98 1 3 C0.67 3.66 0.34 4.32 0 5 C-0.38923527 7.36950521 -0.7380578 9.7457572 -1.0625 12.125 C-1.23910156 13.40632813 -1.41570313 14.68765625 -1.59765625 16.0078125 C-1.73042969 16.99523437 -1.86320312 17.98265625 -2 19 C-2.33 19 -2.66 19 -3 19 C-3.0809313 16.39521117 -3.14045434 13.79293347 -3.1875 11.1875 C-3.22520508 10.08051758 -3.22520508 10.08051758 -3.26367188 8.95117188 C-3.33834499 3.45025238 -3.33834499 3.45025238 -1.48828125 0.98828125 C-0.99714844 0.66214844 -0.50601563 0.33601563 0 0 Z " fill="#47DBF9" transform="translate(58,51)"/>
<path d="M0 0 C5.46488915 4.89084617 7.75889139 11.44364801 8.25 18.6875 C8.12625 19.8321875 8.12625 19.8321875 8 21 C6.01457269 17.24118131 4.45310017 13.31647506 2.875 9.375 C2.59785156 8.694375 2.32070312 8.01375 2.03515625 7.3125 C0 2.23964748 0 2.23964748 0 0 Z " fill="#727272" transform="translate(202,22)"/>
<path d="M0 0 C6.96646382 -0.52577085 12.69283243 0.96280507 19 4 C19.33 4.66 19.66 5.32 20 6 C15.41105799 5.32930848 11.07452793 4.23877704 6.625 2.9375 C5.37976563 2.57527344 4.13453125 2.21304687 2.8515625 1.83984375 C1.91054687 1.56269531 0.96953125 1.28554688 0 1 C0 0.67 0 0.34 0 0 Z " fill="#767676" transform="translate(165,0)"/>
<path d="M0 0 C1.32 0 2.64 0 4 0 C3.53199289 4.05606165 3.12046792 7.46588679 1 11 C0 10 0 10 -0.09765625 7.71484375 C-0.08605469 6.79832031 -0.07445312 5.88179688 -0.0625 4.9375 C-0.05347656 4.01839844 -0.04445312 3.09929687 -0.03515625 2.15234375 C-0.02355469 1.44207031 -0.01195312 0.73179688 0 0 Z " fill="#5BCCF0" transform="translate(52,70)"/>
<path d="M0 0 C0.33 0.99 0.66 1.98 1 3 C-3.27813138 6.54052252 -7.28314654 6.32226057 -12.57421875 6.30078125 C-15 6 -15 6 -17 4 C-16.43152344 4.03480469 -15.86304688 4.06960937 -15.27734375 4.10546875 C-9.66162304 4.30234711 -5.98945008 3.59867192 -1 1 C-0.67 0.67 -0.34 0.34 0 0 Z " fill="#BADDEE" transform="translate(152,164)"/>
<path d="M0 0 C0.66 0.33 1.32 0.66 2 1 C0.38150935 2.83946539 -1.24418831 4.67151417 -2.875 6.5 C-3.33519531 7.02464844 -3.79539063 7.54929687 -4.26953125 8.08984375 C-5.47172076 9.43141755 -6.73245946 10.71999185 -8 12 C-8.66 12 -9.32 12 -10 12 C-8.43873668 8.16780823 -5.97133075 5.82638778 -3 3 C-2.401875 2.401875 -1.80375 1.80375 -1.1875 1.1875 C-0.795625 0.795625 -0.40375 0.40375 0 0 Z " fill="#6EDDE5" transform="translate(146,73)"/>
<path d="M0 0 C0.66 0.33 1.32 0.66 2 1 C1.278125 1.70125 0.55625 2.4025 -0.1875 3.125 C-2.14838462 5.06372773 -3.87041629 7.0744638 -5.5625 9.25 C-8.66756757 12.75315315 -8.66756757 12.75315315 -12 13 C-10.56652501 9.61042892 -8.81218308 7.7219322 -6 5.375 C-3.92339664 3.6266832 -1.92037235 1.92037235 0 0 Z " fill="#76DFE7" transform="translate(115,60)"/>
<path d="M0 0 C0.99 0.33 1.98 0.66 3 1 C2.06725891 2.12894876 1.12859878 3.25300876 0.1875 4.375 C-0.33457031 5.00148438 -0.85664062 5.62796875 -1.39453125 6.2734375 C-3 8 -3 8 -6 10 C-6 6 -6 6 -4.625 4.25 C-3 3 -3 3 -1 3 C-0.67 2.01 -0.34 1.02 0 0 Z " fill="#C8EAF2" transform="translate(93,77)"/>
<path d="M0 0 C0.66 0.33 1.32 0.66 2 1 C-1.96 4.96 -5.92 8.92 -10 13 C-10 8.83248505 -7.76127698 6.85829482 -5 4 C-3.36927384 2.62294236 -1.7133562 1.27277889 0 0 Z " fill="#DEDEDE" transform="translate(20,10)"/>
<path d="M0 0 C2.38564077 0.57584432 4.66682784 1.22227595 7 2 C8.1875 5.0625 8.1875 5.0625 9 8 C6.46089803 7.61479436 5.27248877 7.29902057 3.515625 5.37109375 C3.09796875 4.73300781 2.6803125 4.09492188 2.25 3.4375 C1.82203125 2.79683594 1.3940625 2.15617188 0.953125 1.49609375 C0.48132813 0.75552734 0.48132813 0.75552734 0 0 Z " fill="#4CB5E9" transform="translate(116,150)"/>
<path d="M0 0 C1.88671875 0.203125 1.88671875 0.203125 4 1 C5.08203125 3.109375 5.08203125 3.109375 5.8125 5.75 C6.06644531 6.61109375 6.32039062 7.4721875 6.58203125 8.359375 C7.03351097 11.21171419 6.73334046 13.22627691 6 16 C5.67 16 5.34 16 5 16 C4.96132812 15.14728516 4.96132812 15.14728516 4.921875 14.27734375 C4.49565767 8.47497597 3.20178217 4.8543149 0 0 Z " fill="#D8EDF1" transform="translate(157,44)"/>
<path d="M0 0 C0.94875 0.309375 1.8975 0.61875 2.875 0.9375 C7.50938425 2.27928271 12.20552041 2.63342007 17 3 C17 3.33 17 3.66 17 4 C10.565 4.495 10.565 4.495 4 5 C3.67 4.01 3.34 3.02 3 2 C2.01 2 1.02 2 0 2 C0 1.34 0 0.68 0 0 Z " fill="#D4E5FA" transform="translate(52,167)"/>
<path d="M0 0 C4.20969919 1.50346399 5.91860139 4.14555814 8 8 C7.75 10.375 7.75 10.375 7 12 C6.566875 11.05125 6.13375 10.1025 5.6875 9.125 C4.20697799 5.79958063 4.20697799 5.79958063 1 4 C0.3125 1.875 0.3125 1.875 0 0 Z " fill="#8EEAEA" transform="translate(153,42)"/>
<path d="M0 0 C0.66 0.66 1.32 1.32 2 2 C-0.97 4.31 -3.94 6.62 -7 9 C-7.33 8.01 -7.66 7.02 -8 6 C-5.36 4.02 -2.72 2.04 0 0 Z " fill="#7B7B7B" transform="translate(24,5)"/>
<path d="M0 0 C3.25524265 3.02272532 5.61820737 6.25718301 8 10 C4.9054129 9.6684371 3.97195314 8.97117406 1.75 6.6875 C0 4 0 4 0 0 Z " fill="#818181" transform="translate(7,185)"/>
<path d="M0 0 C2.93200474 2.85276137 5.64315404 5.65079784 8 9 C6.35 8.67 4.7 8.34 3 8 C3 6.68 3 5.36 3 4 C2.01 3.67 1.02 3.34 0 3 C0 2.01 0 1.02 0 0 Z " fill="#C8E7F8" transform="translate(88,120)"/>
<path d="M0 0 C0.33 0 0.66 0 1 0 C1.92470553 4.71599818 2.22923777 7.67265609 0 12 C-0.33 12 -0.66 12 -1 12 C-1.02712066 10.56260487 -1.04645067 9.12506137 -1.0625 7.6875 C-1.07410156 6.88699219 -1.08570312 6.08648437 -1.09765625 5.26171875 C-1 3 -1 3 0 0 Z " fill="#D5E2E8" transform="translate(88,67)"/>
<path d="M0 0 C1.99097846 2.98646769 2.94124926 5.59687262 4 9 C2.68 8.67 1.36 8.34 0 8 C-0.38063221 5.6739143 -0.71269945 3.33944736 -1 1 C-0.67 0.67 -0.34 0.34 0 0 Z " fill="#3485EE" transform="translate(48,154)"/>
<path d="M0 0 C0.66 0.33 1.32 0.66 2 1 C-1.465 3.97 -1.465 3.97 -5 7 C-5.66 6.67 -6.32 6.34 -7 6 C-5.625 4.5 -5.625 4.5 -4 3 C-3.34 3 -2.68 3 -2 3 C-2 2.34 -2 1.68 -2 1 C-1.34 0.67 -0.68 0.34 0 0 Z " fill="#55EDFA" transform="translate(105,72)"/>
<path d="M0 0 C0.33 0 0.66 0 1 0 C1.33 2.31 1.66 4.62 2 7 C-1.465 5.02 -1.465 5.02 -5 3 C-4.360625 2.690625 -3.72125 2.38125 -3.0625 2.0625 C-1.06389179 1.1654837 -1.06389179 1.1654837 0 0 Z " fill="#D6F4F6" transform="translate(83,40)"/>
</svg>
